<svg width="16" height="17" viewBox="0 0 16 17" fill="none" xmlns="http://www.w3.org/2000/svg">
<path fillRule="evenodd" clipRule="evenodd" d="M2.90017 3.10562C2.50264 3.21023 2.16788 3.52408 2.06327 3.91115C2.04235 4.03669 2.03189 4.37146 2.03189 6.4219C2.03189 8.98496 2.03189 8.93265 2.17834 9.17326C2.26203 9.31972 2.45033 9.50803 2.59679 9.60218C2.86878 9.7591 2.77463 9.75911 5.44224 9.75911C7.74371 9.75911 7.86924 9.7591 8.0157 9.7068C8.20603 9.65092 8.37655 9.54207 8.50738 9.39295C8.68522 9.20465 8.78983 8.99542 8.82121 8.75481C8.8526 8.51419 8.8526 4.30869 8.82121 4.06807C8.76891 3.61823 8.40276 3.2207 7.98432 3.10562C7.84832 3.07424 7.53448 3.06377 5.43178 3.07424C3.59061 3.07424 2.99432 3.07424 2.90017 3.10562ZM11.3947 3.137C10.9066 3.57635 10.4487 4.04819 10.0243 4.5493C10.0095 4.60521 10.0105 4.6641 10.0271 4.71949C10.0437 4.77487 10.0753 4.82458 10.1184 4.86314L10.1916 4.93637H10.6101L11.0181 4.94684L11.0076 6.77759V8.60834H10.5892L10.1707 8.61881L10.0975 8.69204C10.0525 8.72942 10.0189 8.7786 10.0005 8.83405C9.98198 8.8895 9.97935 8.94902 9.99287 9.00588C10.0138 9.05819 10.2021 9.27788 10.6728 9.73818C11.0285 10.1043 11.3528 10.4077 11.3947 10.4286C11.4784 10.4705 11.5934 10.4705 11.6771 10.4286C11.7504 10.3868 13.0057 9.13142 13.0371 9.05819C13.0564 9.0136 13.0663 8.96554 13.0663 8.91696C13.0663 8.86838 13.0564 8.82031 13.0371 8.77573C13.0095 8.73428 12.9739 8.69873 12.9325 8.67111C12.8488 8.60834 12.8279 8.60834 12.514 8.60834H12.1688V4.94684H12.5036C12.8174 4.94684 12.8488 4.94684 12.922 4.89453C12.9869 4.8516 13.0336 4.78608 13.0529 4.71069C13.0723 4.63529 13.0629 4.5554 13.0266 4.48653C12.5917 4.01513 12.1381 3.56143 11.6667 3.12654C11.6207 3.10432 11.57 3.09365 11.5189 3.09548C11.4679 3.0973 11.418 3.11156 11.3737 3.137M7.75417 6.41144V8.69204H5.4527C3.77891 8.7025 3.15124 8.69204 3.11985 8.68158C3.07365 7.1685 3.07365 5.65437 3.11985 4.1413C3.14077 4.12038 3.6743 4.12038 5.4527 4.12038H7.75417V6.4219M3.51738 10.9412C3.41277 10.9726 2.07373 12.2071 2.02143 12.3222C1.95866 12.4895 1.99004 12.5314 2.73279 13.2114L3.46507 13.8705C3.56968 13.9332 3.69522 13.9332 3.78937 13.8705C3.9149 13.7972 3.93583 13.7345 3.92537 13.2951V12.8975H7.57633V13.2951C7.57633 13.5775 7.57633 13.7135 7.59725 13.7554C7.67048 13.8914 7.8797 13.9646 8.0157 13.8914C8.03662 13.8705 8.38184 13.5462 8.75845 13.1591C9.53258 12.3954 9.5535 12.3745 9.46981 12.1966C9.42796 12.1234 9.26058 11.9874 8.68522 11.5376C8.26677 11.2132 7.92155 10.9726 7.86924 10.9517C7.81419 10.9368 7.75619 10.9367 7.70109 10.9514C7.64599 10.9661 7.59574 10.9951 7.55541 11.0354C7.49264 11.0982 7.49264 11.1191 7.48218 11.4748V11.8514H3.9149V11.5376C3.9149 11.1296 3.89398 11.0563 3.73706 10.9831C3.63245 10.9308 3.61153 10.9308 3.50692 10.9622" fill="#866FA3"/>
</svg>
