<svg width="48" height="49" viewBox="0 0 48 49" fill="none" xmlns="http://www.w3.org/2000/svg">
<rect y="0.5" width="48" height="48" rx="8" fill="#CC3017" fill-opacity="0.05"/>
<path fill-rule="evenodd" clip-rule="evenodd" d="M31.6653 17.3347C32.1116 17.781 32.1116 18.5046 31.6653 18.9509L17.951 32.665C17.5047 33.1113 16.781 33.1113 16.3347 32.665C15.8884 32.2187 15.8884 31.4951 16.3347 31.0488L30.049 17.3347C30.4953 16.8884 31.219 16.8884 31.6653 17.3347Z" fill="#CC3017"/>
<path fill-rule="evenodd" clip-rule="evenodd" d="M16.3347 17.3347C16.781 16.8884 17.5047 16.8884 17.951 17.3347L31.6653 31.0488C32.1116 31.4951 32.1116 32.2187 31.6653 32.665C31.219 33.1113 30.4953 33.1113 30.049 32.665L16.3347 18.9509C15.8884 18.5046 15.8884 17.781 16.3347 17.3347Z" fill="#CC3017"/>
</svg>
