<svg width="81" height="81" viewBox="0 0 81 81" fill="none" xmlns="http://www.w3.org/2000/svg">
<path d="M70.5 36.5V57.5C70.5 59.0913 69.8679 60.6174 68.7426 61.7426C67.6174 62.8679 66.0913 63.5 64.5 63.5H22.5C20.9087 63.5 19.3826 62.8679 18.2574 61.7426C17.1321 60.6174 16.5 59.0913 16.5 57.5V15.5C16.5 13.9087 17.1321 12.3826 18.2574 11.2574C19.3826 10.1321 20.9087 9.5 22.5 9.5H43.5" stroke="#2E0664" stroke-width="6" stroke-linecap="round" stroke-linejoin="round"/>
<path d="M14 20.5C12.4087 20.5 10.8826 21.1321 9.75736 22.2574C8.63214 23.3826 8 24.9087 8 26.5V68.5C8 70.0913 8.63214 71.6174 9.75736 72.7426C10.8826 73.8679 12.4087 74.5 14 74.5H56C57.5913 74.5 59.1174 73.8679 60.2426 72.7426C61.3679 71.6174 62 70.0913 62 68.5V64" stroke="#2E0664" stroke-width="6" stroke-linecap="round" stroke-linejoin="round"/>
<path d="M55.5 15.5H73.5" stroke="#2E0664" stroke-width="6" stroke-linecap="round" stroke-linejoin="round"/>
<path d="M64.5 6.5V24.5" stroke="#2E0664" stroke-width="6" stroke-linecap="round" stroke-linejoin="round"/>
<path d="M34.5 33.5C37.8137 33.5 40.5 30.8137 40.5 27.5C40.5 24.1863 37.8137 21.5 34.5 21.5C31.1863 21.5 28.5 24.1863 28.5 27.5C28.5 30.8137 31.1863 33.5 34.5 33.5Z" stroke="#2E0664" stroke-width="6" stroke-linecap="round" stroke-linejoin="round"/>
<path d="M70.5 45.4991L61.242 36.2411C60.1168 35.1163 58.591 34.4844 57 34.4844C55.409 34.4844 53.8832 35.1163 52.758 36.2411L25.5 63.4991" stroke="#2E0664" stroke-width="6" stroke-linecap="round" stroke-linejoin="round"/>
</svg>
