<svg width="16" height="16" viewBox="0 0 16 16" fill="none" xmlns="http://www.w3.org/2000/svg">
<g id="Frame">
<path id="Vector" d="M8 14C9.5913 14 11.1174 13.3679 12.2426 12.2426C13.3679 11.1174 14 9.5913 14 8C14 6.4087 13.3679 4.88258 12.2426 3.75736C11.1174 2.63214 9.5913 2 8 2C6.4087 2 4.88258 2.63214 3.75736 3.75736C2.63214 4.88258 2 6.4087 2 8C2 9.5913 2.63214 11.1174 3.75736 12.2426C4.88258 13.3679 6.4087 14 8 14ZM8.6975 6.941L7.9475 10.4698C7.895 10.7248 7.96925 10.8695 8.1755 10.8695C8.321 10.8695 8.54075 10.817 8.69 10.685L8.624 10.997C8.40875 11.2565 7.934 11.4455 7.52525 11.4455C6.998 11.4455 6.77375 11.129 6.91925 10.4562L7.47275 7.85525C7.52075 7.6355 7.47725 7.556 7.2575 7.50275L6.91925 7.442L6.98075 7.15625L8.6975 6.941ZM8 6.125C7.80109 6.125 7.61032 6.04598 7.46967 5.90533C7.32902 5.76468 7.25 5.57391 7.25 5.375C7.25 5.17609 7.32902 4.98532 7.46967 4.84467C7.61032 4.70402 7.80109 4.625 8 4.625C8.19891 4.625 8.38968 4.70402 8.53033 4.84467C8.67098 4.98532 8.75 5.17609 8.75 5.375C8.75 5.57391 8.67098 5.76468 8.53033 5.90533C8.38968 6.04598 8.19891 6.125 8 6.125Z" fill="#0C39AC"/>
</g>
</svg>
