<svg width="37" height="37" viewBox="0 0 37 37" fill="none" xmlns="http://www.w3.org/2000/svg">
<path d="M16.4004 29.0644H23.9765V31.7384H16.4004V29.0644ZM32.2656 2.94922H28.7004V6.15791L32.2656 8.83183V2.94922Z" fill="#8DCDF5"/>
<path d="M2.76367 18.2793V36.6401H9.53758V31.6488H14.3506V26.8358H19.0745V21.8445H23.8876V16.8532H31.2854L18.1832 7.04883L2.76367 18.2793Z" fill="#8DCDF5"/>
<path d="M11.6761 33.7888H19.0739V36.641H11.587L11.6761 33.7888ZM21.213 33.7888H28.7V36.641H21.213V33.7888ZM0 14.1801V16.4975H1.78261L18.1826 4.37576L34.2261 16.4084H36.3652V14.3584L18.1826 0.810547L0 14.1801ZM30.9283 33.7888H33.6022V36.641H30.9283V33.7888ZM26.2043 19.0823H33.6022V21.7562H26.1152L26.2043 19.0823ZM21.213 23.9845H28.7V26.6584H21.213V23.9845ZM26.2043 29.0649H33.6022V31.7388H26.1152L26.2043 29.0649ZM30.9283 23.9845H33.6022V26.6584H30.9283V23.9845Z" fill="#8DCDF5"/>
</svg>
