<svg width="48" height="48" viewBox="0 0 48 48" fill="none" xmlns="http://www.w3.org/2000/svg">
<path d="M16.6272 9.74301C16.8522 9.74301 17.0772 9.64551 17.2197 9.45051L18.2472 8.10051C19.1322 6.93051 19.0122 5.28051 17.9622 4.25301C17.4822 3.78051 17.3997 3.06051 17.7522 2.49051L18.5847 1.15551C18.8022 0.803007 18.6897 0.338007 18.3447 0.120507C18.0072 -0.104493 17.5422 0.000507347 17.3172 0.353007L16.4847 1.69551C15.7572 2.86551 15.9372 4.35801 16.9197 5.31801C17.4297 5.82051 17.4897 6.61551 17.0622 7.19301L16.0422 8.53551C15.7872 8.86551 15.8472 9.33801 16.1847 9.58551C16.3122 9.69801 16.4697 9.74301 16.6272 9.74301ZM21.6072 9.74301C21.8397 9.74301 22.0647 9.64551 22.2072 9.45051L23.2272 8.10051C24.1197 6.93051 23.9922 5.28051 22.9497 4.25301C22.4697 3.78051 22.3872 3.06051 22.7322 2.49051L23.5722 1.15551C23.7897 0.803007 23.6772 0.338007 23.3322 0.120507C22.9872 -0.104493 22.5222 0.000507347 22.3047 0.353007L21.4722 1.69551C20.7447 2.86551 20.9247 4.35801 21.9072 5.31801C22.4172 5.82051 22.4697 6.61551 22.0497 7.19301L21.0222 8.53551C20.7747 8.86551 20.8347 9.33801 21.1722 9.58551C21.2922 9.69801 21.4572 9.74301 21.6072 9.74301Z" fill="#00AEEF"/>
<path d="M11.3102 22.3066C10.3127 22.3066 9.3227 22.6816 8.5652 23.4391C7.2377 24.7666 7.0802 26.8366 8.0927 28.3441L13.4702 22.9666C12.8177 22.5241 12.0602 22.3066 11.3102 22.3066ZM14.5277 24.0241L9.1502 29.4016C10.6502 30.4066 12.7127 30.2491 14.0477 28.9216C15.3752 27.5866 15.5327 25.5241 14.5277 24.0241Z" fill="#00AEEF"/>
<path d="M16.1324 28.5384L20.6174 30.8559V26.5509C20.6174 26.2884 20.7599 26.0484 20.9774 25.9134C21.0299 25.8759 21.0974 25.8534 21.1649 25.8309L19.9124 12.5859H16.4024L15.4424 22.7409C16.2374 23.7084 16.6799 24.9084 16.6799 26.1759C16.6799 27.0084 16.4924 27.8109 16.1324 28.5384Z" fill="#34495C"/>
<path d="M32.2204 27.8399V31.8974C32.2204 32.1599 32.0779 32.4074 31.8604 32.5424C31.6279 32.6849 31.3504 32.6924 31.1179 32.5649L22.1254 27.7949V32.0849C22.1254 32.3474 21.9829 32.5874 21.7654 32.7299C21.5404 32.8649 21.2629 32.8799 21.0304 32.7524L15.2929 29.7824C15.2329 29.8499 15.1804 29.9174 15.1129 29.9774C14.1229 30.9674 12.8179 31.5149 11.4229 31.5449V47.9999H40.5754V32.5874L32.2204 27.8399ZM19.0729 40.9049C19.0729 41.2349 18.8029 41.5124 18.4654 41.5124H14.2654C13.9354 41.5124 13.6579 41.2349 13.6579 40.9049V36.7049C13.6579 36.3674 13.9354 36.0974 14.2654 36.0974H18.4654C18.8029 36.0974 19.0729 36.3674 19.0729 36.7049V40.9049ZM28.7029 40.9049C28.7029 41.2349 28.4329 41.5124 28.0954 41.5124H23.8954C23.5654 41.5124 23.2879 41.2349 23.2879 40.9049V36.7049C23.2879 36.3674 23.5654 36.0974 23.8954 36.0974H28.0954C28.4329 36.0974 28.7029 36.3674 28.7029 36.7049V40.9049ZM38.3329 40.9049C38.3329 41.2349 38.0629 41.5124 37.7254 41.5124H33.5254C33.1879 41.5124 32.9179 41.2349 32.9179 40.9049V36.7049C32.9179 36.3674 33.1879 36.0974 33.5254 36.0974H37.7254C38.0629 36.0974 38.3329 36.3674 38.3329 36.7049V40.9049Z" fill="#34495C"/>
</svg>
