<svg width="42" height="42" viewBox="0 0 42 42" fill="none" xmlns="http://www.w3.org/2000/svg">
<g clipPath="url(#clip0_846_637)">
<path d="M39.5404 36.8295L36.6004 33.8995C37.9113 31.9194 38.44 29.523 38.084 27.1752C37.728 24.8273 36.5127 22.6954 34.6739 21.1928C32.835 19.6903 30.5036 18.9242 28.1319 19.0433C25.7602 19.1624 23.5173 20.158 21.8382 21.8372C20.159 23.5163 19.1633 25.7593 19.0443 28.1309C18.9252 30.5026 19.6913 32.834 21.1938 34.6729C22.6963 36.5117 24.8283 37.727 27.1761 38.083C29.524 38.439 31.9203 37.9103 33.9004 36.5995L36.8504 39.5395C37.0258 39.7253 37.2366 39.8741 37.4705 39.977C37.7043 40.08 37.9565 40.1349 38.212 40.1386C38.4674 40.1424 38.7211 40.0948 38.9578 39.9987C39.1946 39.9027 39.4097 39.7601 39.5904 39.5794C39.7711 39.3987 39.9136 39.1836 40.0097 38.9469C40.1058 38.7101 40.1533 38.4565 40.1496 38.201C40.1459 37.9455 40.0909 37.6934 39.988 37.4595C39.8851 37.2256 39.7363 37.0148 39.5504 36.8395L39.5404 36.8295ZM22.9104 28.6295C22.9104 27.4962 23.2465 26.3883 23.8761 25.446C24.5057 24.5037 25.4006 23.7693 26.4477 23.3356C27.4947 22.9019 28.6468 22.7885 29.7583 23.0096C30.8698 23.2307 31.8908 23.7764 32.6922 24.5777C33.4935 25.3791 34.0392 26.4001 34.2603 27.5116C34.4814 28.6231 34.368 29.7752 33.9343 30.8222C33.5006 31.8693 32.7661 32.7642 31.8239 33.3938C30.8816 34.0234 29.7737 34.3595 28.6404 34.3595C27.1207 34.3595 25.6633 33.7558 24.5887 32.6812C23.5141 31.6066 22.9104 30.1491 22.9104 28.6295Z" fill="#FAB0A2"/>
<path d="M17.1803 28.6399C17.1698 26.9701 17.5263 25.3183 18.2246 23.8014C18.9229 22.2845 19.9459 20.9395 21.2213 19.8616C22.4967 18.7837 23.9933 17.9991 25.6054 17.5634C27.2174 17.1276 28.9055 17.0513 30.5503 17.3399V15.2299C30.8507 15.2371 31.1484 15.1718 31.4182 15.0395C31.688 14.9072 31.922 14.7118 32.1003 14.4699C32.2471 14.2659 32.3523 14.0349 32.4097 13.7901C32.467 13.5453 32.4755 13.2916 32.4347 13.0436C32.3938 12.7955 32.3043 12.558 32.1715 12.3446C32.0386 12.1312 31.8649 11.9461 31.6603 11.7999L18.3003 2.25995C17.9764 2.02864 17.5883 1.9043 17.1903 1.9043C16.7923 1.9043 16.4042 2.02864 16.0803 2.25995L2.70028 11.7999C2.37347 12.0352 2.12939 12.3678 2.00291 12.7501C1.87643 13.1324 1.87402 13.5449 1.99602 13.9287C2.11803 14.3125 2.35821 14.6479 2.68225 14.8869C3.00628 15.126 3.3976 15.2566 3.80028 15.2599V30.5499C3.80159 30.8008 3.85229 31.0489 3.94949 31.2801C4.04669 31.5113 4.18848 31.7212 4.36677 31.8976C4.54506 32.074 4.75635 32.2136 4.98859 32.3084C5.22082 32.4032 5.46945 32.4513 5.72028 32.4499H17.8503C17.4111 31.2275 17.1845 29.9389 17.1803 28.6399ZM13.3603 13.3599C13.3603 12.8551 13.5601 12.3708 13.9162 12.0129C14.2722 11.655 14.7555 11.4526 15.2603 11.4499H19.0903C19.5968 11.4499 20.0827 11.6512 20.4409 12.0094C20.799 12.3676 21.0003 12.8534 21.0003 13.3599C21.0003 13.8665 20.799 14.3523 20.4409 14.7105C20.0827 15.0687 19.5968 15.2699 19.0903 15.2699H15.2703C14.7655 15.2673 14.2822 15.0649 13.9262 14.707C13.5701 14.3491 13.3703 13.8648 13.3703 13.3599H13.3603Z" fill="#FAB0A2"/>
</g>
<defs>
<clipPath id="clip0_846_637">
<rect width="42" height="42" fill="white"/>
</clipPath>
</defs>
</svg>
