<svg width="42" height="42" viewBox="0 0 42 42" fill="none" xmlns="http://www.w3.org/2000/svg">
<g clipPath="url(#clip0_846_629)">
<g clipPath="url(#clip1_846_629)">
<path d="M21.7004 14.6992L16.4004 12.6992V35.9992L25.6004 39.6992V21.2992C23.9866 19.2819 22.642 17.0633 21.6004 14.6992H21.7004Z" fill="#7ED8AA"/>
<path d="M2.69998 18.2V38C2.6704 38.2846 2.71766 38.5719 2.83686 38.832C2.95606 39.0921 3.14283 39.3155 3.3777 39.4789C3.61258 39.6423 3.88698 39.7397 4.17231 39.761C4.45763 39.7823 4.74345 39.7267 4.99998 39.6L14.2 35.9V12.5L3.79998 16.7C3.50187 16.8206 3.247 17.0282 3.06862 17.2958C2.89024 17.5633 2.79662 17.8784 2.79998 18.2H2.69998ZM34 25C33.6809 25.3618 33.2885 25.6515 32.8489 25.85C32.4092 26.0485 31.9324 26.1511 31.45 26.1511C30.9676 26.1511 30.4908 26.0485 30.0511 25.85C29.6114 25.6515 29.219 25.3618 28.9 25L27.9 24V40L38.4 35.8C38.6981 35.6794 38.953 35.4718 39.1314 35.2042C39.3097 34.9367 39.4033 34.6216 39.4 34.3V17.8C37.8214 20.3584 36.014 22.7683 34 25Z" fill="#7ED8AA"/>
<path d="M31.4004 2C29.2787 2 27.2438 2.84285 25.7435 4.34315C24.2432 5.84344 23.4004 7.87827 23.4004 10C23.4004 13.3 28.2004 19.7 30.4004 22.4C30.5224 22.5469 30.6752 22.6651 30.8481 22.7462C31.0209 22.8273 31.2095 22.8693 31.4004 22.8693C31.5913 22.8693 31.7799 22.8273 31.9527 22.7462C32.1256 22.6651 32.2784 22.5469 32.4004 22.4C34.4004 19.7 39.4004 13.4 39.4004 10.1C39.4004 7.97827 38.5575 5.94344 37.0572 4.44315C35.557 2.94285 33.5221 2.1 31.4004 2.1V2ZM31.4004 13.6C30.9366 13.6008 30.4775 13.5067 30.0514 13.3235C29.6252 13.1402 29.2411 12.8717 28.9227 12.5345C28.6042 12.1973 28.3581 11.7985 28.1995 11.3626C28.0409 10.9267 27.9731 10.463 28.0004 10C28.0002 9.54496 28.0913 9.09452 28.2684 8.67536C28.4455 8.25619 28.7049 7.87684 29.0313 7.55978C29.3577 7.24272 29.7444 6.9944 30.1685 6.82953C30.5927 6.66467 31.0456 6.58662 31.5004 6.6C32.4021 6.6 33.2669 6.95821 33.9046 7.59584C34.5422 8.23346 34.9004 9.09826 34.9004 10C34.9138 10.4548 34.8357 10.9077 34.6709 11.3319C34.506 11.756 34.2577 12.1427 33.9406 12.4691C33.6235 12.7955 33.2442 13.0549 32.825 13.232C32.4059 13.4091 31.9554 13.5002 31.5004 13.5L31.4004 13.6Z" fill="#7ED8AA"/>
</g>
</g>
<defs>
<clipPath id="clip0_846_629">
<rect width="42" height="42" fill="white"/>
</clipPath>
<clipPath id="clip1_846_629">
<rect width="42" height="42" fill="white"/>
</clipPath>
</defs>
</svg>
