<svg width="54" height="54" viewBox="0 0 54 54" fill="none" xmlns="http://www.w3.org/2000/svg">
<path d="M29.1278 38.8653H35.5096C36.0005 38.8653 36.3278 38.5381 36.3278 38.0472V28.4744C36.3278 27.9835 36.0005 27.6562 35.5096 27.6562H29.1278C28.6368 27.6562 28.3096 27.9835 28.3096 28.4744V38.0472C28.3096 38.5381 28.6368 38.8653 29.1278 38.8653ZM29.9459 29.2926H34.6914V37.229H29.9459V29.2926ZM39.6005 38.8653H45.9823C46.4732 38.8653 46.8005 38.5381 46.8005 38.0472V28.4744C46.8005 27.9835 46.4732 27.6562 45.9823 27.6562H39.6005C39.1096 27.6562 38.7823 27.9835 38.7823 28.4744V38.0472C38.7823 38.5381 39.1096 38.8653 39.6005 38.8653ZM40.4187 29.2926H45.1641V37.229H40.4187V29.2926Z" fill="#006AFF"/>
<path d="M52.8541 23.0722L40.3359 10.554C40.1723 10.3904 40.0087 10.3086 39.7632 10.3086H14.2359C13.9905 10.3086 13.745 10.3904 13.6632 10.554L1.06322 23.154C0.817768 23.3995 0.73595 23.7268 0.899586 24.054C0.981405 24.3813 1.30868 24.545 1.63595 24.545H3.27231V42.7904C3.27231 43.2813 3.59959 43.6086 4.0905 43.6086C14.0723 43.6086 40.0905 43.6086 50.7269 43.6086C51.2178 43.6086 51.545 43.2813 51.545 42.7904V24.545H52.3632C53.1814 24.545 53.5087 23.5631 52.8541 23.0722ZM46.145 18.7359H22.9087L20.3723 16.1995H43.6087L46.145 18.7359ZM27.1632 22.9086L26.0996 21.845L24.545 20.3722H47.7814L50.3178 22.9086H27.1632ZM41.9723 14.5631H18.7359L16.1996 12.0268H39.436L41.9723 14.5631ZM11.3723 42.054V36.4086C11.3723 34.854 12.6814 33.545 14.2359 33.545C15.7905 33.545 17.0996 34.854 17.0996 36.4086V42.054H11.3723ZM23.5632 23.7268V41.9722H18.7359V36.3268C18.7359 33.8722 16.7723 31.8268 14.2359 31.8268C11.6996 31.8268 9.73595 33.7904 9.73595 36.3268V41.9722H4.90868V23.7268C4.90868 23.2359 4.5814 22.9086 4.0905 22.9086H3.59959L14.2359 12.2722C16.0359 14.0722 20.8632 18.8995 24.8723 22.9086H24.3814C23.8905 22.9086 23.5632 23.3177 23.5632 23.7268ZM49.9087 42.054H25.1996V24.545H26.8359H49.9087V42.054Z" fill="#006AFF"/>
<path d="M14.236 18.2461C11.8633 18.2461 9.98145 20.1279 9.98145 22.5006C9.98145 24.8734 11.8633 26.7552 14.236 26.7552C16.6087 26.7552 18.4905 24.8734 18.4905 22.5006C18.4905 20.2097 16.5269 18.2461 14.236 18.2461ZM14.236 25.1188C12.7633 25.1188 11.6178 23.9734 11.6178 22.5006C11.6178 21.0279 12.7633 19.8825 14.236 19.8825C15.7087 19.8825 16.8542 21.0279 16.8542 22.5006C16.8542 23.9734 15.6269 25.1188 14.236 25.1188Z" fill="#006AFF"/>
</svg>
