<svg width="96" height="17" viewBox="0 0 96 17" fill="none" xmlns="http://www.w3.org/2000/svg">
<path d="M9.15376 2.72065L10.3271 5.06738C10.4871 5.39405 10.9138 5.70739 11.2738 5.76739L13.4004 6.12074C14.7604 6.34741 15.0804 7.3341 14.1004 8.30746L12.4471 9.96083C12.1671 10.2408 12.0138 10.7809 12.1004 11.1675L12.5738 13.2142C12.9471 14.8343 12.0871 15.461 10.6538 14.6143L8.66043 13.4343C8.30043 13.2209 7.70709 13.2209 7.34043 13.4343L5.34709 14.6143C3.92043 15.461 3.05376 14.8276 3.42709 13.2142L3.90043 11.1675C3.98709 10.7809 3.83376 10.2408 3.55376 9.96083L1.90043 8.30746C0.927094 7.3341 1.24043 6.34741 2.60043 6.12074L4.72709 5.76739C5.08043 5.70739 5.50709 5.39405 5.66709 5.06738L6.84043 2.72065C7.48043 1.44728 8.52043 1.44728 9.15376 2.72065Z" fill="#FFCB12" stroke="#170000" strokeOpacity="0.8" strokeWidth="1.00001" strokeLinecap="round" strokeLinejoin="round"/>
<path d="M29.1538 2.72065L30.3271 5.06738C30.4871 5.39405 30.9138 5.70739 31.2738 5.76739L33.4004 6.12074C34.7604 6.34741 35.0804 7.3341 34.1004 8.30746L32.4471 9.96083C32.1671 10.2408 32.0138 10.7809 32.1004 11.1675L32.5738 13.2142C32.9471 14.8343 32.0871 15.461 30.6538 14.6143L28.6604 13.4343C28.3004 13.2209 27.7071 13.2209 27.3404 13.4343L25.3471 14.6143C23.9204 15.461 23.0538 14.8276 23.4271 13.2142L23.9004 11.1675C23.9871 10.7809 23.8338 10.2408 23.5538 9.96083L21.9004 8.30746C20.9271 7.3341 21.2404 6.34741 22.6004 6.12074L24.7271 5.76739C25.0804 5.70739 25.5071 5.39405 25.6671 5.06738L26.8404 2.72065C27.4804 1.44728 28.5204 1.44728 29.1538 2.72065Z" fill="#FFCB12" stroke="#170000" strokeOpacity="0.8" strokeWidth="1.00001" strokeLinecap="round" strokeLinejoin="round"/>
<path d="M49.1538 2.72065L50.3271 5.06738C50.4871 5.39405 50.9138 5.70739 51.2738 5.76739L53.4004 6.12074C54.7604 6.34741 55.0804 7.3341 54.1004 8.30746L52.4471 9.96083C52.1671 10.2408 52.0138 10.7809 52.1004 11.1675L52.5738 13.2142C52.9471 14.8343 52.0871 15.461 50.6538 14.6143L48.6604 13.4343C48.3004 13.2209 47.7071 13.2209 47.3404 13.4343L45.3471 14.6143C43.9204 15.461 43.0538 14.8276 43.4271 13.2142L43.9004 11.1675C43.9871 10.7809 43.8338 10.2408 43.5538 9.96083L41.9004 8.30746C40.9271 7.3341 41.2404 6.34741 42.6004 6.12074L44.7271 5.76739C45.0804 5.70739 45.5071 5.39405 45.6671 5.06738L46.8404 2.72065C47.4804 1.44728 48.5204 1.44728 49.1538 2.72065Z" fill="#FFCB12" stroke="#170000" strokeOpacity="0.8" strokeWidth="1.00001" strokeLinecap="round" strokeLinejoin="round"/>
<path d="M69.1538 2.72065L70.3271 5.06738C70.4871 5.39405 70.9138 5.70739 71.2738 5.76739L73.4004 6.12074C74.7604 6.34741 75.0804 7.3341 74.1004 8.30746L72.4471 9.96083C72.1671 10.2408 72.0138 10.7809 72.1004 11.1675L72.5738 13.2142C72.9471 14.8343 72.0871 15.461 70.6538 14.6143L68.6604 13.4343C68.3004 13.2209 67.7071 13.2209 67.3404 13.4343L65.3471 14.6143C63.9204 15.461 63.0538 14.8276 63.4271 13.2142L63.9004 11.1675C63.9871 10.7809 63.8338 10.2408 63.5538 9.96083L61.9004 8.30746C60.9271 7.3341 61.2404 6.34741 62.6004 6.12074L64.7271 5.76739C65.0804 5.70739 65.5071 5.39405 65.6671 5.06738L66.8404 2.72065C67.4804 1.44728 68.5204 1.44728 69.1538 2.72065Z" stroke="#170000" strokeOpacity="0.8" strokeWidth="1.00001" strokeLinecap="round" strokeLinejoin="round"/>
<path d="M89.1538 2.72065L90.3271 5.06738C90.4871 5.39405 90.9138 5.70739 91.2738 5.76739L93.4004 6.12074C94.7604 6.34741 95.0804 7.3341 94.1004 8.30746L92.4471 9.96083C92.1671 10.2408 92.0138 10.7809 92.1004 11.1675L92.5738 13.2142C92.9471 14.8343 92.0871 15.461 90.6538 14.6143L88.6604 13.4343C88.3004 13.2209 87.7071 13.2209 87.3404 13.4343L85.3471 14.6143C83.9204 15.461 83.0538 14.8276 83.4271 13.2142L83.9004 11.1675C83.9871 10.7809 83.8338 10.2408 83.5538 9.96083L81.9004 8.30746C80.9271 7.3341 81.2404 6.34741 82.6004 6.12074L84.7271 5.76739C85.0804 5.70739 85.5071 5.39405 85.6671 5.06738L86.8404 2.72065C87.4804 1.44728 88.5204 1.44728 89.1538 2.72065Z" stroke="#170000" strokeOpacity="0.8" strokeWidth="1.00001" strokeLinecap="round" strokeLinejoin="round"/>
</svg>
