<svg width="48" height="48" viewBox="0 0 48 48" fill="none" xmlns="http://www.w3.org/2000/svg">
<path d="M0 0H40C44.4183 0 48 3.58172 48 8V48H8C3.58172 48 0 44.4183 0 40V0Z" fill="#312245"/>
<path fillRule="evenodd" clipRule="evenodd" d="M31.6653 16.8347C32.1116 17.281 32.1116 18.0046 31.6653 18.4509L17.951 32.165C17.5047 32.6113 16.781 32.6113 16.3347 32.165C15.8884 31.7187 15.8884 30.9951 16.3347 30.5488L30.049 16.8347C30.4953 16.3884 31.219 16.3884 31.6653 16.8347Z" fill="#CD2424"/>
<path fillRule="evenodd" clipRule="evenodd" d="M16.3347 16.8347C16.781 16.3884 17.5047 16.3884 17.951 16.8347L31.6653 30.5488C32.1116 30.9951 32.1116 31.7187 31.6653 32.165C31.219 32.6113 30.4953 32.6113 30.049 32.165L16.3347 18.4509C15.8884 18.0046 15.8884 17.281 16.3347 16.8347Z" fill="#CD2424"/>
</svg>
