<svg width="96" height="17" viewBox="0 0 96 17" fill="none" xmlns="http://www.w3.org/2000/svg">
<path d="M11.9456 9.61633C11.7729 9.78366 11.6936 10.0257 11.7329 10.263L12.3256 13.543C12.3756 13.821 12.2583 14.1023 12.0256 14.263C11.7976 14.4297 11.4943 14.4497 11.2456 14.3163L8.29292 12.7763C8.19026 12.7217 8.07626 12.6923 7.95959 12.689H7.77892C7.71626 12.6983 7.65493 12.7183 7.59893 12.749L4.64559 14.2963C4.49959 14.3697 4.33426 14.3957 4.17226 14.3697C3.77759 14.295 3.51426 13.919 3.57893 13.5223L4.17226 10.2423C4.21159 10.003 4.13226 9.75966 3.95959 9.58966L1.55226 7.25633C1.35093 7.06099 1.28093 6.76766 1.37293 6.503C1.46226 6.239 1.69026 6.04633 1.96559 6.003L5.27892 5.52233C5.53093 5.49633 5.75226 5.34299 5.86559 5.11633L7.32559 2.12299C7.36026 2.05633 7.40493 1.99499 7.45893 1.94299L7.51892 1.89633C7.55026 1.86166 7.58626 1.83299 7.62626 1.80966L7.69893 1.78299L7.81226 1.73633H8.09293C8.34359 1.76233 8.56426 1.91233 8.67959 2.13633L10.1589 5.11633C10.2656 5.33433 10.4729 5.48566 10.7123 5.52233L14.0256 6.003C14.3056 6.04299 14.5396 6.23633 14.6323 6.503C14.7196 6.77033 14.6443 7.06366 14.4389 7.25633L11.9456 9.61633Z" fill="#2E0664"/>
<path d="M31.9456 9.61633C31.7729 9.78366 31.6936 10.0257 31.7329 10.263L32.3256 13.543C32.3756 13.821 32.2583 14.1023 32.0256 14.263C31.7976 14.4297 31.4943 14.4497 31.2456 14.3163L28.2929 12.7763C28.1903 12.7217 28.0763 12.6923 27.9596 12.689H27.7789C27.7163 12.6983 27.6549 12.7183 27.5989 12.749L24.6456 14.2963C24.4996 14.3697 24.3343 14.3957 24.1723 14.3697C23.7776 14.295 23.5143 13.919 23.5789 13.5223L24.1723 10.2423C24.2116 10.003 24.1323 9.75966 23.9596 9.58966L21.5523 7.25633C21.3509 7.06099 21.2809 6.76766 21.3729 6.503C21.4623 6.239 21.6903 6.04633 21.9656 6.003L25.2789 5.52233C25.5309 5.49633 25.7523 5.34299 25.8656 5.11633L27.3256 2.12299C27.3603 2.05633 27.4049 1.99499 27.4589 1.94299L27.5189 1.89633C27.5503 1.86166 27.5863 1.83299 27.6263 1.80966L27.6989 1.78299L27.8123 1.73633H28.0929C28.3436 1.76233 28.5643 1.91233 28.6796 2.13633L30.1589 5.11633C30.2656 5.33433 30.4729 5.48566 30.7123 5.52233L34.0256 6.003C34.3056 6.04299 34.5396 6.23633 34.6323 6.503C34.7196 6.77033 34.6443 7.06366 34.4389 7.25633L31.9456 9.61633Z" fill="#2E0664"/>
<path d="M51.9456 9.61633C51.7729 9.78366 51.6936 10.0257 51.7329 10.263L52.3256 13.543C52.3756 13.821 52.2583 14.1023 52.0256 14.263C51.7976 14.4297 51.4943 14.4497 51.2456 14.3163L48.2929 12.7763C48.1903 12.7217 48.0763 12.6923 47.9596 12.689H47.7789C47.7163 12.6983 47.6549 12.7183 47.5989 12.749L44.6456 14.2963C44.4996 14.3697 44.3343 14.3957 44.1723 14.3697C43.7776 14.295 43.5143 13.919 43.5789 13.5223L44.1723 10.2423C44.2116 10.003 44.1323 9.75966 43.9596 9.58966L41.5523 7.25633C41.3509 7.06099 41.2809 6.76766 41.3729 6.503C41.4623 6.239 41.6903 6.04633 41.9656 6.003L45.2789 5.52233C45.5309 5.49633 45.7523 5.34299 45.8656 5.11633L47.3256 2.12299C47.3603 2.05633 47.4049 1.99499 47.4589 1.94299L47.5189 1.89633C47.5503 1.86166 47.5863 1.83299 47.6263 1.80966L47.6989 1.78299L47.8123 1.73633H48.0929C48.3436 1.76233 48.5643 1.91233 48.6796 2.13633L50.1589 5.11633C50.2656 5.33433 50.4729 5.48566 50.7123 5.52233L54.0256 6.003C54.3056 6.04299 54.5396 6.23633 54.6323 6.503C54.7196 6.77033 54.6443 7.06366 54.4389 7.25633L51.9456 9.61633Z" fill="#2E0664"/>
<path d="M71.9456 9.61633C71.7729 9.78366 71.6936 10.0257 71.7329 10.263L72.3256 13.543C72.3756 13.821 72.2583 14.1023 72.0256 14.263C71.7976 14.4297 71.4943 14.4497 71.2456 14.3163L68.2929 12.7763C68.1903 12.7217 68.0763 12.6923 67.9596 12.689H67.7789C67.7163 12.6983 67.6549 12.7183 67.5989 12.749L64.6456 14.2963C64.4996 14.3697 64.3343 14.3957 64.1723 14.3697C63.7776 14.295 63.5143 13.919 63.5789 13.5223L64.1723 10.2423C64.2116 10.003 64.1323 9.75966 63.9596 9.58966L61.5523 7.25633C61.3509 7.06099 61.2809 6.76766 61.3729 6.503C61.4623 6.239 61.6903 6.04633 61.9656 6.003L65.2789 5.52233C65.5309 5.49633 65.7523 5.34299 65.8656 5.11633L67.3256 2.12299C67.3603 2.05633 67.4049 1.99499 67.4589 1.94299L67.5189 1.89633C67.5503 1.86166 67.5863 1.83299 67.6263 1.80966L67.6989 1.78299L67.8123 1.73633H68.0929C68.3436 1.76233 68.5643 1.91233 68.6796 2.13633L70.1589 5.11633C70.2656 5.33433 70.4729 5.48566 70.7123 5.52233L74.0256 6.003C74.3056 6.04299 74.5396 6.23633 74.6323 6.503C74.7196 6.77033 74.6443 7.06366 74.4389 7.25633L71.9456 9.61633Z" fill="#2E0664"/>
<path d="M88.6515 2.1454L90.1358 5.12825C90.2452 5.34436 90.4539 5.49444 90.6946 5.52779L94.0287 6.01337C94.2234 6.04072 94.4001 6.14344 94.5194 6.30018C94.6375 6.45493 94.6881 6.65103 94.6595 6.84379C94.6361 7.00387 94.5608 7.15195 94.4454 7.26534L92.0296 9.6072C91.8529 9.77061 91.7729 10.0127 91.8155 10.2495L92.4103 13.5419C92.4737 13.9394 92.2103 14.3143 91.8155 14.3896C91.6528 14.4156 91.4861 14.3883 91.3394 14.3136L88.3655 12.7641C88.1447 12.6527 87.884 12.6527 87.6633 12.7641L84.6893 14.3136C84.3239 14.5077 83.8712 14.3756 83.6678 14.0154C83.5924 13.872 83.5658 13.7086 83.5904 13.5492L84.1852 10.2562C84.2279 10.0201 84.1472 9.77662 83.9712 9.6132L81.5553 7.27268C81.2679 6.9952 81.2593 6.5383 81.536 6.25082C81.542 6.24482 81.5487 6.23815 81.5553 6.23148C81.67 6.11476 81.8207 6.04072 81.9834 6.02138L85.3175 5.53513C85.5575 5.50111 85.7662 5.35237 85.8763 5.13492L87.3072 2.1454C87.4346 1.88927 87.6986 1.72986 87.9854 1.73653H88.0747C88.3234 1.76654 88.5402 1.92062 88.6515 2.1454Z" fill="#2E0664"/>
<path d="M87.9953 12.6811C87.8662 12.6851 87.7404 12.7198 87.6272 12.7818L84.6678 14.3278C84.3057 14.5006 83.8724 14.3665 83.6693 14.0202C83.5941 13.8787 83.5668 13.7166 83.5921 13.5578L84.1832 10.2718C84.2232 10.0329 84.1433 9.79004 83.9695 9.6219L81.5526 7.28198C81.2657 7.00108 81.2604 6.54004 81.5413 6.25247C81.5453 6.24847 81.5486 6.24513 81.5526 6.24179C81.6671 6.12837 81.8149 6.05364 81.974 6.03029L85.3108 5.53922C85.5524 5.50853 85.7621 5.35773 85.8686 5.13889L87.319 2.11174C87.4568 1.86754 87.7211 1.72209 88.0007 1.73743C87.9953 1.9356 87.9953 12.5463 87.9953 12.6811Z" fill="#2E0664"/>
</svg>
