<svg width="72" height="72" viewBox="0 0 72 72" fill="none" xmlns="http://www.w3.org/2000/svg">
<path d="M0 16C0 7.16344 7.16344 0 16 0H56C64.8366 0 72 7.16344 72 16V56C72 64.8366 64.8366 72 56 72H16C7.16344 72 0 64.8366 0 56V16Z" fill="#CD2424" fill-opacity="0.1"/>
<path d="M45.1705 32.3115C45.2976 32.4385 45.3985 32.5893 45.4673 32.7553C45.5361 32.9214 45.5716 33.0993 45.5716 33.2791C45.5716 33.4588 45.5361 33.6368 45.4673 33.8028C45.3985 33.9688 45.2976 34.1197 45.1705 34.2467L39.7004 39.7173C39.5734 39.8445 39.4226 39.9453 39.2566 40.0142C39.0905 40.083 38.9126 40.1184 38.7329 40.1184C38.5532 40.1184 38.3752 40.083 38.2092 40.0142C38.0432 39.9453 37.8924 39.8445 37.7654 39.7173L33.2628 35.2126L28.7602 39.7173C28.5036 39.9739 28.1556 40.1181 27.7927 40.1181C27.4298 40.1181 27.0818 39.9739 26.8252 39.7173C26.5686 39.4607 26.4244 39.1126 26.4244 38.7497C26.4244 38.3868 26.5686 38.0387 26.8252 37.7821L32.2953 32.3115C32.4223 32.1843 32.5731 32.0834 32.7391 32.0146C32.9051 31.9458 33.0831 31.9103 33.2628 31.9103C33.4425 31.9103 33.6205 31.9458 33.7865 32.0146C33.9525 32.0834 34.1033 32.1843 34.2303 32.3115L38.7329 36.8162L43.2354 32.3115C43.3625 32.1843 43.5133 32.0834 43.6793 32.0146C43.8453 31.9458 44.0233 31.9103 44.203 31.9103C44.3827 31.9103 44.5606 31.9458 44.7266 32.0146C44.8927 32.0834 45.0435 32.1843 45.1705 32.3115ZM53.7756 36.0144C53.7763 39.084 52.9823 42.1014 51.471 44.7731C49.9596 47.4447 47.7824 49.6795 45.1512 51.26C42.52 52.8404 39.5245 53.7127 36.4562 53.7918C33.3879 53.871 30.3514 53.1543 27.6423 51.7116L21.8218 53.652C21.3399 53.8127 20.8227 53.836 20.3283 53.7193C19.8339 53.6026 19.3817 53.3505 19.0225 52.9913C18.6633 52.6321 18.4113 52.1799 18.2946 51.6854C18.1779 51.1909 18.2012 50.6738 18.3619 50.1918L20.3021 44.3707C19.034 41.9863 18.3257 39.3442 18.231 36.6452C18.1363 33.9461 18.6577 31.2609 19.7556 28.7934C20.8535 26.3259 22.499 24.141 24.5673 22.4045C26.6356 20.668 29.0722 19.4256 31.6923 18.7715C34.3124 18.1174 37.0471 18.0689 39.6887 18.6296C42.3304 19.1903 44.8096 20.3455 46.9382 22.0075C49.0667 23.6695 50.7887 25.7947 51.9735 28.2217C53.1582 30.6486 53.7745 33.3136 53.7756 36.0144ZM51.0406 36.0144C51.0399 33.7067 50.5084 31.4301 49.4872 29.3607C48.466 27.2912 46.9825 25.4845 45.1514 24.0803C43.3203 22.6761 41.1907 21.7119 38.9274 21.2625C36.6641 20.8131 34.3277 20.8904 32.0991 21.4885C29.8705 22.0866 27.8093 23.1895 26.075 24.7117C24.3408 26.234 22.9799 28.1349 22.0978 30.2673C21.2156 32.3997 20.8358 34.7065 20.9877 37.0092C21.1397 39.3118 21.8192 41.5487 22.9739 43.5467C23.0708 43.7145 23.131 43.9009 23.1504 44.0936C23.1699 44.2864 23.1482 44.4811 23.0867 44.6648L20.9551 51.0586L27.3483 48.925C27.5321 48.8638 27.7268 48.8424 27.9195 48.8621C28.1123 48.8819 28.2986 48.9424 28.4662 49.0396C30.753 50.3624 33.3478 51.0596 35.9896 51.061C38.6313 51.0625 41.2269 50.3681 43.5151 49.0478C45.8034 47.7275 47.7036 45.8279 49.0247 43.5399C50.3457 41.2519 51.041 38.6564 51.0406 36.0144Z" fill="#CD2424"/>
</svg>
