<svg width="72" height="72" viewBox="0 0 72 72" fill="none" xmlns="http://www.w3.org/2000/svg">
<path d="M0 16C0 7.16344 7.16344 0 16 0H56C64.8366 0 72 7.16344 72 16V56C72 64.8366 64.8366 72 56 72H16C7.16344 72 0 64.8366 0 56V16Z" fill="#0C8B3F" fill-opacity="0.1"/>
<g clipPath="url(#clip0_2103_1694)">
<path d="M30.4841 18.5054C30.9529 18.0367 31.5887 17.7734 32.2516 17.7734C32.9145 17.7734 33.5503 18.0367 34.0191 18.5054L35.6366 20.1204C35.8713 20.3551 36.0032 20.6735 36.0032 21.0054C36.0032 21.3373 35.8713 21.6557 35.6366 21.8904C35.4019 22.1251 35.0835 22.257 34.7516 22.257C34.4196 22.257 34.1013 22.1251 33.8666 21.8904L32.2516 20.2729L21.0016 31.5229V47.2554C21.0016 47.5869 21.1333 47.9049 21.3677 48.1393C21.6021 48.3737 21.9201 48.5054 22.2516 48.5054C22.5831 48.5054 22.901 48.6371 23.1355 48.8715C23.3699 49.1059 23.5016 49.4239 23.5016 49.7554C23.5016 50.0869 23.3699 50.4049 23.1355 50.6393C22.901 50.8737 22.5831 51.0054 22.2516 51.0054C21.257 51.0054 20.3032 50.6103 19.5999 49.9071C18.8967 49.2038 18.5016 48.25 18.5016 47.2554V34.0229L18.1366 34.3904C17.9019 34.6251 17.5835 34.757 17.2516 34.757C16.9196 34.757 16.6013 34.6251 16.3666 34.3904C16.1319 34.1557 16 33.8373 16 33.5054C16 33.1735 16.1319 32.8551 16.3666 32.6204L30.4841 18.5054ZM37.9841 21.0054C38.4529 20.5367 39.0887 20.2734 39.7516 20.2734C40.4145 20.2734 41.0503 20.5367 41.5191 21.0054L46.0016 25.4879V22.2554C46.0016 21.9239 46.1333 21.6059 46.3677 21.3715C46.6021 21.1371 46.9201 21.0054 47.2516 21.0054H49.7516C50.0831 21.0054 50.401 21.1371 50.6355 21.3715C50.8699 21.6059 51.0016 21.9239 51.0016 22.2554V30.4879L55.6366 35.1204C55.8713 35.3551 56.0032 35.6735 56.0032 36.0054C56.0032 36.3373 55.8713 36.6557 55.6366 36.8904C55.4019 37.1251 55.0835 37.257 54.7516 37.257C54.4196 37.257 54.1013 37.1251 53.8666 36.8904L53.5016 36.5229V49.7554C53.5016 50.75 53.1065 51.7038 52.4032 52.4071C51.7 53.1103 50.7461 53.5054 49.7516 53.5054H29.7516C28.757 53.5054 27.8032 53.1103 27.0999 52.4071C26.3967 51.7038 26.0016 50.75 26.0016 49.7554V36.5229L25.6366 36.8904C25.5204 37.0066 25.3824 37.0988 25.2305 37.1617C25.0787 37.2246 24.9159 37.257 24.7516 37.257C24.5872 37.257 24.4245 37.2246 24.2726 37.1617C24.1208 37.0988 23.9828 37.0066 23.8666 36.8904C23.7504 36.7742 23.6582 36.6362 23.5953 36.4844C23.5324 36.3325 23.5 36.1698 23.5 36.0054C23.5 35.841 23.5324 35.6783 23.5953 35.5264C23.6582 35.3746 23.7504 35.2366 23.8666 35.1204L37.9841 21.0054ZM39.7516 22.7729L28.5016 34.0229V49.7554C28.5016 50.0869 28.6333 50.4049 28.8677 50.6393C29.1021 50.8737 29.4201 51.0054 29.7516 51.0054H49.7516C50.0831 51.0054 50.401 50.8737 50.6355 50.6393C50.8699 50.4049 51.0016 50.0869 51.0016 49.7554V34.0229L39.7516 22.7729Z" fill="#0C8B3F"/>
</g>
<defs>
<clipPath id="clip0_2103_1694">
<rect width="40" height="40" fill="white" transform="translate(16 16)"/>
</clipPath>
</defs>
</svg>
