<svg width="72" height="72" viewBox="0 0 72 72" fill="none" xmlns="http://www.w3.org/2000/svg">
<path d="M0 16C0 7.16344 7.16344 0 16 0H56C64.8366 0 72 7.16344 72 16V56C72 64.8366 64.8366 72 56 72H16C7.16344 72 0 64.8366 0 56V16Z" fill="#0C39AC" fill-opacity="0.1"/>
<path d="M46.34 16.8152C46.8926 16.677 47.4695 16.6665 48.0268 16.7845C48.5842 16.9025 49.1073 17.1459 49.5564 17.4963C50.0056 17.8467 50.3691 18.2948 50.6192 18.8066C50.8693 19.3185 50.9996 19.8805 51 20.4502V23.5002H52.25C53.2446 23.5002 54.1984 23.8953 54.9016 24.5986C55.6049 25.3018 56 26.2557 56 27.2502V49.7502C56 50.7448 55.6049 51.6986 54.9016 52.4019C54.1984 53.1051 53.2446 53.5002 52.25 53.5002H19.75C18.7554 53.5002 17.8016 53.1051 17.0983 52.4019C16.3951 51.6986 16 50.7448 16 49.7502V27.2502C15.9997 26.2849 16.3716 25.3565 17.0384 24.6585C17.7053 23.9605 18.6156 23.5465 19.58 23.5027L46.34 16.8152ZM29.905 23.5002H48.5V20.4502C48.4996 20.2606 48.456 20.0735 48.3725 19.9032C48.2891 19.7328 48.168 19.5837 48.0184 19.4671C47.8688 19.3505 47.6947 19.2695 47.5091 19.2302C47.3236 19.1909 47.1315 19.1943 46.9475 19.2402L29.905 23.5002ZM19.75 26.0002C19.4185 26.0002 19.1005 26.1319 18.8661 26.3663C18.6317 26.6008 18.5 26.9187 18.5 27.2502V49.7502C18.5 50.0817 18.6317 50.3997 18.8661 50.6341C19.1005 50.8685 19.4185 51.0002 19.75 51.0002H52.25C52.5815 51.0002 52.8995 50.8685 53.1339 50.6341C53.3683 50.3997 53.5 50.0817 53.5 49.7502V27.2502C53.5 26.9187 53.3683 26.6008 53.1339 26.3663C52.8995 26.1319 52.5815 26.0002 52.25 26.0002H19.75Z" fill="#0C39AC"/>
</svg>
