<svg width="72" height="72" viewBox="0 0 72 72" fill="none" xmlns="http://www.w3.org/2000/svg">
<path d="M0 16C0 7.16344 7.16344 0 16 0H56C64.8366 0 72 7.16344 72 16V56C72 64.8366 64.8366 72 56 72H16C7.16344 72 0 64.8366 0 56V16Z" fill="#E2CF1D" fill-opacity="0.1"/>
<path fillRule="evenodd" clipRule="evenodd" d="M52.9354 24.727L50.9854 24.267L45.7154 29.507L42.7304 26.467L47.8704 21.0745L47.4204 19.0945C46.3342 18.7311 45.1982 18.5388 44.0529 18.5245C42.8036 18.5053 41.5636 18.7436 40.4104 19.2245C39.2969 19.7285 38.2904 20.4414 37.4454 21.3245C36.5048 22.2155 35.7598 23.2925 35.2579 24.487C34.2915 26.8642 34.2915 29.5248 35.2579 31.902C30.046 37.0295 24.9014 42.2249 19.8254 47.487C19.3004 48.1745 19.0504 49.032 19.1154 49.8945C19.1666 50.8222 19.5838 51.6916 20.2754 52.312C20.5854 52.6495 20.9554 52.9295 21.3679 53.132C21.7929 53.3195 22.2504 53.427 22.7129 53.4495C23.5029 53.4345 24.2604 53.1345 24.8479 52.607C28.7179 48.9645 36.1329 41.482 40.3454 37.097C41.4879 37.582 42.7154 37.832 43.9554 37.8295C45.2036 37.8285 46.439 37.5774 47.5884 37.0909C48.7379 36.6044 49.7782 35.8924 50.6479 34.997C52.4343 33.1752 53.432 30.7235 53.4254 28.172C53.4543 27.0044 53.2887 25.8402 52.9354 24.727ZM23.3354 50.8345C23.2392 50.92 23.1232 50.9801 22.9979 51.0095C22.8747 51.0308 22.7487 51.0308 22.6254 51.0095C22.4962 50.9898 22.3731 50.9411 22.2654 50.867C22.1498 50.7994 22.0521 50.7051 21.9804 50.592C21.6304 50.2345 21.3029 49.5545 21.6304 49.172C25.0554 45.5295 32.1079 38.4095 36.5179 34.057C36.7679 34.387 37.0429 34.702 37.3379 34.997C37.6329 35.3045 37.9504 35.5895 38.2879 35.8495C34.0229 40.2245 27.0654 47.2595 23.3354 50.8345ZM51.1304 28.172C51.1354 30.0845 50.3904 31.922 49.0504 33.292C47.7132 34.6037 45.9148 35.3386 44.0417 35.3386C42.1685 35.3386 40.3701 34.6037 39.0329 33.292C38.0529 32.2693 37.3834 30.9892 37.1024 29.6009C36.8213 28.2125 36.9403 26.7729 37.4454 25.4495C37.7816 24.5488 38.3032 23.7288 38.9763 23.0423C39.6493 22.3559 40.459 21.8184 41.3529 21.4645C42.2016 21.1093 43.1128 20.9274 44.0329 20.9295H44.6679L40.1254 25.612V27.352L44.8629 32.067H46.5129L51.1304 27.527V28.172ZM24.1029 32.7345H27.9304L29.6929 34.527L31.3879 32.842L29.7254 31.147V31.0395L29.8679 26.917L29.3179 25.8245L22.1679 21.1195L20.6904 21.2845L18.6129 23.407L18.4479 24.9045L23.0429 32.1995L24.1029 32.7345ZM21.7404 23.6545L27.5254 27.4645L27.4279 30.272H24.7379L21.0079 24.367L21.7404 23.6545ZM39.5029 41.0545L41.1879 39.372L48.9529 47.3345C49.607 48.0219 49.9717 48.9344 49.9717 49.8833C49.9717 50.8321 49.607 51.7446 48.9529 52.432C48.4611 52.9369 47.8287 53.2821 47.138 53.4225C46.4473 53.563 45.7303 53.4922 45.0804 53.2195C44.6656 53.0355 44.2936 52.7674 43.9879 52.432L36.1329 44.4245L37.8304 42.7295L45.6604 50.7145C45.7657 50.8306 45.8967 50.9205 46.0429 50.977C46.3307 51.0939 46.6527 51.0939 46.9404 50.977C47.0866 50.9205 47.2176 50.8306 47.3229 50.7145C47.4323 50.6061 47.5175 50.4757 47.5729 50.332C47.6303 50.1853 47.6607 50.0295 47.6629 49.872C47.6604 49.7148 47.6308 49.5592 47.5754 49.412C47.52 49.2683 47.4348 49.1379 47.3254 49.0295L39.5029 41.0545Z" fill="#E2CF1D"/>
</svg>
