<svg width="16" height="16" viewBox="0 0 16 16" fill="none" xmlns="http://www.w3.org/2000/svg">
<g id="file-signature">
<path id="Vector" d="M13.3337 12.9987V13.332C13.3337 13.6857 13.1932 14.0248 12.9431 14.2748C12.6931 14.5249 12.3539 14.6654 12.0003 14.6654H4.00033C3.6467 14.6654 3.30756 14.5249 3.05752 14.2748C2.80747 14.0248 2.66699 13.6857 2.66699 13.332V2.66536C2.66699 2.31174 2.80747 1.9726 3.05752 1.72256C3.30756 1.47251 3.6467 1.33203 4.00033 1.33203H9.66699L12.0003 3.66536" stroke="#312245" stroke-width="1.33333" stroke-linecap="round" stroke-linejoin="round"/>
<path id="Vector_2" d="M5.33301 11.998H5.99967" stroke="#312245" stroke-width="1.33333" stroke-linecap="round" stroke-linejoin="round"/>
<path id="Vector_3" d="M12.2803 6.40421C12.4103 6.2742 12.5647 6.17107 12.7345 6.10071C12.9044 6.03035 13.0865 5.99414 13.2703 5.99414C13.4542 5.99414 13.6362 6.03035 13.8061 6.10071C13.976 6.17107 14.1303 6.2742 14.2603 6.40421C14.3903 6.53422 14.4935 6.68856 14.5638 6.85843C14.6342 7.02829 14.6704 7.21035 14.6704 7.39421C14.6704 7.57807 14.6342 7.76013 14.5638 7.93C14.4935 8.09986 14.3903 8.2542 14.2603 8.38421L11.3003 11.3309L8.66699 11.9975L9.32699 9.36421L12.2803 6.40421Z" stroke="#312245" stroke-width="1.33333" stroke-linecap="round" stroke-linejoin="round"/>
</g>
</svg>
